<svg width="220" height="220" viewBox="0 0 220 220" fill="none" xmlns="http://www.w3.org/2000/svg">
  <defs>
    <radialGradient id="gold" cx="0" cy="0" r="1" gradientUnits="userSpaceOnUse" gradientTransform="translate(78 66) rotate(47) scale(175)">
      <stop stop-color="#FFF0A0"/>
      <stop offset="0.55" stop-color="#F4BA2E"/>
      <stop offset="1" stop-color="#A96400"/>
    </radialGradient>
  </defs>
  <circle cx="110" cy="110" r="96" fill="url(#gold)" stroke="#532C00" stroke-width="12"/>
  <path d="M65 153C65 112 86 74 110 74C134 74 155 112 155 153H65Z" fill="#37180F"/>
  <path d="M82 89L69 57L94 66L109 49L113 85L82 89Z" fill="#F3E7B1" stroke="#4E2A12" stroke-width="6" stroke-linejoin="round"/>
  <path d="M138 89L151 57L126 66L111 49L107 85L138 89Z" fill="#F3E7B1" stroke="#4E2A12" stroke-width="6" stroke-linejoin="round"/>
  <path d="M93 62L110 44L127 62L122 85H98L93 62Z" fill="#D4451D" stroke="#6D1C0B" stroke-width="6" stroke-linejoin="round"/>
  <path d="M71 106L97 94L105 108L79 118L71 106Z" fill="#230F08"/>
  <path d="M149 106L123 94L115 108L141 118L149 106Z" fill="#230F08"/>
  <circle cx="92" cy="123" r="17" fill="#FFF5F0"/>
  <circle cx="128" cy="123" r="17" fill="#FFF5F0"/>
  <circle cx="90" cy="125" r="9" fill="#D93A2A"/>
  <circle cx="126" cy="125" r="9" fill="#D93A2A"/>
  <circle cx="87" cy="122" r="4.5" fill="#1D130F"/>
  <circle cx="123" cy="122" r="4.5" fill="#1D130F"/>
  <ellipse cx="95" cy="144" rx="8" ry="12" fill="#1D130F"/>
  <ellipse cx="125" cy="144" rx="8" ry="12" fill="#1D130F"/>
  <path d="M86 161C97 172 123 172 134 161L138 166C126 186 94 186 82 166L86 161Z" fill="#54140C" stroke="#1E0905" stroke-width="5"/>
  <path d="M85 18L110 6L135 18" stroke="#7B4300" stroke-width="8" stroke-linecap="round"/>
</svg>
