<svg width="320" height="420" viewBox="0 0 320 420" fill="none" xmlns="http://www.w3.org/2000/svg">
  <defs>
    <linearGradient id="shell" x1="160" y1="134" x2="160" y2="296" gradientUnits="userSpaceOnUse">
      <stop stop-color="#6FCF3F"/>
      <stop offset="1" stop-color="#256E18"/>
    </linearGradient>
    <linearGradient id="body" x1="160" y1="101" x2="160" y2="352" gradientUnits="userSpaceOnUse">
      <stop stop-color="#F6C16E"/>
      <stop offset="1" stop-color="#D78937"/>
    </linearGradient>
    <linearGradient id="hair" x1="161" y1="41" x2="161" y2="133" gradientUnits="userSpaceOnUse">
      <stop stop-color="#FF7442"/>
      <stop offset="1" stop-color="#BE1E13"/>
    </linearGradient>
  </defs>
  <ellipse cx="154" cy="391" rx="101" ry="18" fill="#000" opacity="0.18"/>
  <path d="M101 275C101 220 124 184 160 184C196 184 219 220 219 275V314H101V275Z" fill="url(#body)" stroke="#6B350C" stroke-width="8"/>
  <path d="M90 264C90 197 121 149 160 149C199 149 230 197 230 264V305H90V264Z" fill="url(#shell)" stroke="#47300D" stroke-width="10"/>
  <path d="M112 173L128 143L149 167L133 196L112 173Z" fill="#F4EEE0" stroke="#5D3412" stroke-width="7" stroke-linejoin="round"/>
  <path d="M208 173L192 143L171 167L187 196L208 173Z" fill="#F4EEE0" stroke="#5D3412" stroke-width="7" stroke-linejoin="round"/>
  <path d="M77 246L56 214L72 208L94 242L77 246Z" fill="url(#body)" stroke="#6B350C" stroke-width="8" stroke-linejoin="round"/>
  <path d="M243 246L264 214L248 208L226 242L243 246Z" fill="url(#body)" stroke="#6B350C" stroke-width="8" stroke-linejoin="round"/>
  <path d="M116 318L101 368L132 362L143 322L116 318Z" fill="url(#body)" stroke="#6B350C" stroke-width="8" stroke-linejoin="round"/>
  <path d="M204 318L219 368L188 362L177 322L204 318Z" fill="url(#body)" stroke="#6B350C" stroke-width="8" stroke-linejoin="round"/>
  <path d="M98 284H221" stroke="#EED4A5" stroke-width="14" stroke-linecap="round"/>
  <circle cx="160" cy="122" r="62" fill="url(#body)" stroke="#6B350C" stroke-width="10"/>
  <path d="M104 96L88 53L121 69L140 46L146 95L104 96Z" fill="#F5EED4" stroke="#5A3110" stroke-width="8" stroke-linejoin="round"/>
  <path d="M216 96L232 53L199 69L180 46L174 95L216 96Z" fill="#F5EED4" stroke="#5A3110" stroke-width="8" stroke-linejoin="round"/>
  <path d="M118 63L160 18L202 63L190 118H130L118 63Z" fill="url(#hair)" stroke="#7C180D" stroke-width="8" stroke-linejoin="round"/>
  <path d="M126 109L99 97L110 128L128 129L126 109Z" fill="#8BC53F" stroke="#3F5F15" stroke-width="7" stroke-linejoin="round"/>
  <path d="M194 109L221 97L210 128L192 129L194 109Z" fill="#8BC53F" stroke="#3F5F15" stroke-width="7" stroke-linejoin="round"/>
  <rect x="125" y="108" width="70" height="16" rx="8" fill="#EEF6DC" stroke="#3F5F15" stroke-width="7"/>
  <ellipse cx="136" cy="132" rx="18" ry="23" fill="#FFFDFB"/>
  <ellipse cx="184" cy="132" rx="18" ry="23" fill="#FFFDFB"/>
  <circle cx="136" cy="136" r="9" fill="#D92C1E"/>
  <circle cx="184" cy="136" r="9" fill="#D92C1E"/>
  <circle cx="133" cy="132" r="4" fill="#190D08"/>
  <circle cx="181" cy="132" r="4" fill="#190D08"/>
  <path d="M109 120L133 111L140 126L115 134L109 120Z" fill="#25130C"/>
  <path d="M211 120L187 111L180 126L205 134L211 120Z" fill="#25130C"/>
  <ellipse cx="145" cy="166" rx="10" ry="13" fill="#533114"/>
  <ellipse cx="175" cy="166" rx="10" ry="13" fill="#533114"/>
  <path d="M128 179C141 195 179 195 192 179L196 188C179 207 141 207 124 188L128 179Z" fill="#8A1F14" stroke="#3A0A06" stroke-width="6"/>
  <path d="M133 183L145 196" stroke="#FFF2CF" stroke-width="7" stroke-linecap="round"/>
  <path d="M187 183L175 196" stroke="#FFF2CF" stroke-width="7" stroke-linecap="round"/>
  <path d="M121 233L111 211L134 220L121 233Z" fill="#F4EEE0" stroke="#5D3412" stroke-width="7" stroke-linejoin="round"/>
  <path d="M199 233L209 211L186 220L199 233Z" fill="#F4EEE0" stroke="#5D3412" stroke-width="7" stroke-linejoin="round"/>
  <path d="M113 291L103 270L125 278L113 291Z" fill="#F4EEE0" stroke="#5D3412" stroke-width="7" stroke-linejoin="round"/>
  <path d="M207 291L217 270L195 278L207 291Z" fill="#F4EEE0" stroke="#5D3412" stroke-width="7" stroke-linejoin="round"/>
</svg>
